<svg width="463" height="65" viewBox="0 0 463 65" fill="none" xmlns="http://www.w3.org/2000/svg">
<path d="M31.868 36.328L33.056 35.47C34.552 34.59 35.608 34.15 36.224 34.15C37.588 34.15 39.062 35.382 40.646 37.846C41.614 39.386 42.098 40.618 42.098 41.542C42.098 42.466 41.79 43.236 41.174 43.852C40.602 44.468 39.92 45.018 39.128 45.502C38.336 45.986 37.566 46.448 36.818 46.888C36.114 47.328 34.64 47.9 32.396 48.604C30.152 49.308 27.974 49.66 25.862 49.66C23.794 49.66 21.682 49.396 19.526 48.868C17.414 48.296 15.214 47.372 12.926 46.096C10.682 44.776 8.658 43.192 6.854 41.344C5.05 39.452 3.554 37.054 2.366 34.15C1.222 31.202 0.65 28.012 0.65 24.58C0.65 21.148 1.222 18.046 2.366 15.274C3.51 12.458 4.962 10.148 6.722 8.344C8.526 6.496 10.572 4.956 12.86 3.724C17.172 1.348 21.506 0.159999 25.862 0.159999C27.93 0.159999 30.02 0.489999 32.132 1.15C34.288 1.766 35.916 2.404 37.016 3.064L38.6 3.988C39.392 4.472 40.008 4.868 40.448 5.176C41.592 6.1 42.164 7.156 42.164 8.344C42.164 9.488 41.702 10.698 40.778 11.974C39.062 14.35 37.522 15.538 36.158 15.538C35.366 15.538 34.244 15.054 32.792 14.086C30.944 12.59 28.48 11.842 25.4 11.842C22.54 11.842 19.724 12.832 16.952 14.812C15.632 15.78 14.532 17.144 13.652 18.904C12.772 20.664 12.332 22.666 12.332 24.91C12.332 27.11 12.772 29.09 13.652 30.85C14.532 32.61 15.654 33.996 17.018 35.008C19.702 36.944 22.496 37.912 25.4 37.912C26.764 37.912 28.04 37.736 29.228 37.384C30.46 37.032 31.34 36.68 31.868 36.328ZM104.317 0.885998C107.265 1.942 108.739 3.35 108.739 5.11C108.739 5.682 108.475 6.76 107.947 8.344L95.2749 44.974C95.1869 45.282 95.0329 45.656 94.8129 46.096C94.5929 46.536 93.9989 47.13 93.0309 47.878C92.1069 48.582 90.9849 48.934 89.6649 48.934C88.3889 48.934 87.2669 48.582 86.2989 47.878C85.3749 47.13 84.7589 46.404 84.4509 45.7L76.7289 22.93C71.8449 37.362 69.3589 44.71 69.2709 44.974C69.1829 45.238 68.9849 45.612 68.6769 46.096C68.3689 46.58 68.0169 47.02 67.6209 47.416C66.6089 48.428 65.3989 48.934 63.9909 48.934C62.5829 48.934 61.4169 48.604 60.4929 47.944C59.6129 47.284 59.0189 46.624 58.7109 45.964L58.2489 44.974L45.5109 8.344C45.0269 6.892 44.7849 5.814 44.7849 5.11C44.7849 3.35 46.2589 1.964 49.2069 0.951997C50.4829 0.511997 51.6269 0.291998 52.6389 0.291998C53.6949 0.291998 54.4869 0.643997 55.0149 1.348C55.5869 2.052 56.0929 3.13 56.5329 4.582L63.7929 26.626L70.9869 4.912C71.6029 3.064 72.7249 1.788 74.3529 1.084C75.0569 0.775998 75.9589 0.621997 77.0589 0.621997C78.2029 0.621997 79.2589 0.995998 80.2269 1.744C81.1949 2.448 81.8109 3.152 82.0749 3.856L89.6649 26.758L96.9249 4.582C97.2769 3.57 97.5629 2.822 97.7829 2.338C98.0029 1.854 98.3989 1.392 98.9709 0.951997C99.5869 0.467998 100.335 0.225999 101.215 0.225999C102.095 0.225999 103.129 0.445998 104.317 0.885998ZM112.37 6.43C112.37 5.418 112.392 4.67 112.436 4.186C112.524 3.658 112.744 3.064 113.096 2.404C113.712 1.216 115.428 0.621997 118.244 0.621997C121.324 0.621997 123.15 1.436 123.722 3.064C123.942 3.812 124.052 4.956 124.052 6.496V43.192C124.052 44.248 124.008 45.018 123.92 45.502C123.876 45.986 123.678 46.558 123.326 47.218C122.71 48.406 120.994 49 118.178 49C115.098 49 113.294 48.164 112.766 46.492C112.502 45.788 112.37 44.666 112.37 43.126V6.43Z" fill="#4E3BC8"/>
<path d="M183.041 40.816C183.701 42.4 184.031 43.544 184.031 44.248C184.031 45.92 182.667 47.328 179.939 48.472C178.531 49.088 177.387 49.396 176.507 49.396C175.671 49.396 174.967 49.198 174.395 48.802C173.867 48.362 173.471 47.922 173.207 47.482C172.767 46.646 171.051 42.664 168.059 35.536L166.013 35.668H157.697V43.126C157.697 44.138 157.653 44.908 157.565 45.436C157.521 45.92 157.323 46.492 156.971 47.152C156.355 48.34 154.639 48.934 151.823 48.934C148.743 48.934 146.939 48.12 146.411 46.492C146.147 45.744 146.015 44.6 146.015 43.06V6.43C146.015 5.418 146.037 4.67 146.081 4.186C146.169 3.658 146.389 3.064 146.741 2.404C147.357 1.216 149.073 0.621997 151.889 0.621997H166.145C170.017 0.621997 173.779 2.03 177.431 4.846C179.191 6.21 180.643 8.058 181.787 10.39C182.931 12.722 183.503 15.318 183.503 18.178C183.503 23.15 181.853 27.242 178.553 30.454C179.521 32.786 181.017 36.24 183.041 40.816ZM157.697 23.986H166.145C167.421 23.986 168.697 23.502 169.973 22.534C171.249 21.566 171.887 20.114 171.887 18.178C171.887 16.242 171.249 14.79 169.973 13.822C168.697 12.81 167.377 12.304 166.013 12.304H157.697V23.986ZM219.891 27.484C219.891 30.168 219.209 32.17 217.845 33.49C216.525 34.766 215.051 35.404 213.423 35.404H197.781C197.781 36.636 198.507 37.67 199.959 38.506C201.411 39.342 202.863 39.76 204.315 39.76C206.867 39.76 208.869 39.496 210.321 38.968L211.047 38.704C212.103 38.22 212.983 37.978 213.687 37.978C215.095 37.978 216.305 38.968 217.317 40.948C217.889 42.136 218.175 43.148 218.175 43.984C218.175 47.9 213.489 49.858 204.117 49.858C200.861 49.858 197.957 49.308 195.405 48.208C192.897 47.064 190.939 45.568 189.531 43.72C186.759 40.156 185.373 36.174 185.373 31.774C185.373 26.23 187.155 21.808 190.719 18.508C194.327 15.164 198.815 13.492 204.183 13.492C210.299 13.492 214.787 15.648 217.647 19.96C219.143 22.248 219.891 24.756 219.891 27.484ZM205.965 29.398C207.637 29.398 208.473 28.694 208.473 27.286C208.473 26.274 208.077 25.46 207.285 24.844C206.537 24.228 205.437 23.92 203.985 23.92C202.577 23.92 201.169 24.514 199.761 25.702C198.353 26.846 197.649 28.078 197.649 29.398H205.965ZM224.461 45.898C223.625 45.37 223.207 44.534 223.207 43.39C223.207 42.246 224.043 40.508 225.715 38.176C226.199 37.428 226.969 37.054 228.025 37.054C229.125 37.054 230.599 37.604 232.447 38.704C234.295 39.76 235.967 40.288 237.463 40.288C240.147 40.288 241.489 39.76 241.489 38.704C241.489 37.868 240.015 37.252 237.067 36.856C234.295 36.46 231.545 35.426 228.817 33.754C227.541 32.962 226.485 31.73 225.649 30.058C224.813 28.342 224.395 26.318 224.395 23.986C224.395 17.034 229.169 13.558 238.717 13.558C241.841 13.558 245.053 14.306 248.353 15.802C249.893 16.506 250.663 17.386 250.663 18.442C250.663 19.498 250.179 20.796 249.211 22.336C248.243 23.876 247.253 24.646 246.241 24.646C245.713 24.646 244.723 24.316 243.271 23.656C241.863 22.996 240.323 22.666 238.651 22.666C236.055 22.666 234.757 23.15 234.757 24.118C234.757 25.438 236.253 26.296 239.245 26.692C242.149 27 244.965 27.836 247.693 29.2C248.969 29.816 250.025 30.894 250.861 32.434C251.741 33.93 252.181 35.822 252.181 38.11C252.181 40.398 251.741 42.356 250.861 43.984C250.025 45.568 248.837 46.756 247.297 47.548C244.481 48.912 240.939 49.594 236.671 49.594C232.447 49.594 228.377 48.362 224.461 45.898ZM256.488 58.438V19.894C256.488 18.882 256.51 18.134 256.554 17.65C256.642 17.166 256.84 16.616 257.148 16C257.764 14.812 259.238 14.218 261.57 14.218C263.902 14.218 265.464 14.526 266.256 15.142C267.092 15.714 267.576 16.572 267.708 17.716C269.38 15.428 271.998 14.284 275.562 14.284C279.17 14.284 282.58 15.978 285.792 19.366C289.004 22.754 290.61 26.692 290.61 31.18C290.61 35.668 289.004 39.606 285.792 42.994C282.624 46.382 279.236 48.076 275.628 48.076C272.02 48.076 269.402 47.064 267.774 45.04V58.372C267.774 59.384 267.73 60.132 267.642 60.616C267.598 61.1 267.4 61.65 267.048 62.266C266.74 62.926 266.19 63.388 265.398 63.652C264.606 63.916 263.528 64.048 262.164 64.048C260.8 64.048 259.7 63.916 258.864 63.652C258.072 63.388 257.5 62.948 257.148 62.332C256.84 61.716 256.642 61.166 256.554 60.682C256.51 60.198 256.488 59.45 256.488 58.438ZM269.556 27.352C268.544 28.54 268.038 29.838 268.038 31.246C268.038 32.654 268.544 33.952 269.556 35.14C270.612 36.284 271.932 36.856 273.516 36.856C275.144 36.856 276.508 36.284 277.608 35.14C278.752 33.996 279.324 32.698 279.324 31.246C279.324 29.794 278.796 28.496 277.74 27.352C276.684 26.164 275.298 25.57 273.582 25.57C271.91 25.57 270.568 26.164 269.556 27.352ZM293.912 31.642C293.912 26.362 295.76 22.006 299.456 18.574C303.152 15.142 307.376 13.426 312.128 13.426C316.88 13.426 321.082 15.142 324.734 18.574C328.386 21.962 330.212 26.296 330.212 31.576C330.212 35.228 329.266 38.484 327.374 41.344C325.482 44.16 323.172 46.25 320.444 47.614C317.76 48.934 314.966 49.594 312.062 49.594C309.158 49.594 306.342 48.89 303.614 47.482C300.886 46.03 298.576 43.918 296.684 41.146C294.836 38.33 293.912 35.162 293.912 31.642ZM307.706 36.394C309.114 37.45 310.544 37.978 311.996 37.978C313.448 37.978 314.9 37.428 316.352 36.328C317.804 35.228 318.53 33.6 318.53 31.444C318.53 29.288 317.848 27.682 316.484 26.626C315.12 25.57 313.646 25.042 312.062 25.042C310.478 25.042 309.004 25.592 307.64 26.692C306.276 27.792 305.594 29.42 305.594 31.576C305.594 33.688 306.298 35.294 307.706 36.394ZM334.74 45.898C333.904 45.37 333.486 44.534 333.486 43.39C333.486 42.246 334.322 40.508 335.994 38.176C336.478 37.428 337.248 37.054 338.304 37.054C339.404 37.054 340.878 37.604 342.726 38.704C344.574 39.76 346.246 40.288 347.742 40.288C350.426 40.288 351.768 39.76 351.768 38.704C351.768 37.868 350.294 37.252 347.346 36.856C344.574 36.46 341.824 35.426 339.096 33.754C337.82 32.962 336.764 31.73 335.928 30.058C335.092 28.342 334.674 26.318 334.674 23.986C334.674 17.034 339.448 13.558 348.996 13.558C352.12 13.558 355.332 14.306 358.632 15.802C360.172 16.506 360.942 17.386 360.942 18.442C360.942 19.498 360.458 20.796 359.49 22.336C358.522 23.876 357.532 24.646 356.52 24.646C355.992 24.646 355.002 24.316 353.55 23.656C352.142 22.996 350.602 22.666 348.93 22.666C346.334 22.666 345.036 23.15 345.036 24.118C345.036 25.438 346.532 26.296 349.524 26.692C352.428 27 355.244 27.836 357.972 29.2C359.248 29.816 360.304 30.894 361.14 32.434C362.02 33.93 362.46 35.822 362.46 38.11C362.46 40.398 362.02 42.356 361.14 43.984C360.304 45.568 359.116 46.756 357.576 47.548C354.76 48.912 351.218 49.594 346.95 49.594C342.726 49.594 338.656 48.362 334.74 45.898ZM385.932 25.9L381.642 25.636V34.744C381.642 35.932 381.818 36.79 382.17 37.318C382.566 37.846 383.27 38.11 384.282 38.11C385.338 38.11 386.13 38.154 386.658 38.242C387.23 38.286 387.824 38.484 388.44 38.836C389.452 39.408 389.958 40.882 389.958 43.258C389.958 46.03 389.342 47.724 388.11 48.34C387.45 48.648 386.856 48.846 386.328 48.934C385.844 48.978 385.118 49 384.15 49C379.574 49 376.098 47.966 373.722 45.898C371.346 43.83 370.158 40.332 370.158 35.404V25.636C369.322 25.768 368.42 25.834 367.452 25.834C366.484 25.834 365.67 25.46 365.01 24.712C364.394 23.964 364.086 22.688 364.086 20.884C364.086 19.08 364.196 17.782 364.416 16.99C364.636 16.154 364.944 15.56 365.34 15.208C366.044 14.636 366.924 14.35 367.98 14.35L370.158 14.614V7.816C370.158 6.804 370.18 6.056 370.224 5.572C370.312 5.088 370.532 4.56 370.884 3.988C371.456 2.888 373.15 2.338 375.966 2.338C378.958 2.338 380.74 3.152 381.312 4.78C381.532 5.484 381.642 6.606 381.642 8.146V14.614C383.578 14.438 385.03 14.35 385.998 14.35C387.01 14.35 387.758 14.394 388.242 14.482C388.77 14.526 389.364 14.724 390.024 15.076C391.168 15.648 391.74 17.342 391.74 20.158C391.74 22.93 391.146 24.624 389.958 25.24C389.298 25.548 388.704 25.746 388.176 25.834C387.692 25.878 386.944 25.9 385.932 25.9ZM417.956 17.914C418.22 15.45 419.958 14.218 423.17 14.218C424.886 14.218 426.162 14.35 426.998 14.614C427.834 14.878 428.406 15.34 428.714 16C429.066 16.66 429.264 17.254 429.308 17.782C429.396 18.266 429.44 19.014 429.44 20.026V43.126C429.44 44.138 429.396 44.908 429.308 45.436C429.264 45.92 429.088 46.492 428.78 47.152C428.164 48.296 426.646 48.868 424.226 48.868C421.85 48.868 420.244 48.582 419.408 48.01C418.616 47.394 418.154 46.514 418.022 45.37C416.394 47.702 413.666 48.868 409.838 48.868C406.054 48.868 402.534 47.13 399.278 43.654C396.022 40.178 394.394 36.152 394.394 31.576C394.394 26.956 396.022 22.93 399.278 19.498C402.578 16.022 406.186 14.284 410.102 14.284C411.598 14.284 412.962 14.548 414.194 15.076C415.426 15.604 416.284 16.11 416.768 16.594C417.252 17.034 417.648 17.474 417.956 17.914ZM405.944 31.642C405.944 33.094 406.516 34.414 407.66 35.602C408.804 36.746 410.19 37.318 411.818 37.318C413.446 37.318 414.788 36.724 415.844 35.536C416.944 34.348 417.494 33.05 417.494 31.642C417.494 30.19 416.966 28.848 415.91 27.616C414.898 26.384 413.512 25.768 411.752 25.768C410.036 25.768 408.628 26.384 407.528 27.616C406.472 28.848 405.944 30.19 405.944 31.642ZM434.965 45.898C434.129 45.37 433.711 44.534 433.711 43.39C433.711 42.246 434.547 40.508 436.219 38.176C436.703 37.428 437.473 37.054 438.529 37.054C439.629 37.054 441.103 37.604 442.951 38.704C444.799 39.76 446.471 40.288 447.967 40.288C450.651 40.288 451.993 39.76 451.993 38.704C451.993 37.868 450.519 37.252 447.571 36.856C444.799 36.46 442.049 35.426 439.321 33.754C438.045 32.962 436.989 31.73 436.153 30.058C435.317 28.342 434.899 26.318 434.899 23.986C434.899 17.034 439.673 13.558 449.221 13.558C452.345 13.558 455.557 14.306 458.857 15.802C460.397 16.506 461.167 17.386 461.167 18.442C461.167 19.498 460.683 20.796 459.715 22.336C458.747 23.876 457.757 24.646 456.745 24.646C456.217 24.646 455.227 24.316 453.775 23.656C452.367 22.996 450.827 22.666 449.155 22.666C446.559 22.666 445.261 23.15 445.261 24.118C445.261 25.438 446.757 26.296 449.749 26.692C452.653 27 455.469 27.836 458.197 29.2C459.473 29.816 460.529 30.894 461.365 32.434C462.245 33.93 462.685 35.822 462.685 38.11C462.685 40.398 462.245 42.356 461.365 43.984C460.529 45.568 459.341 46.756 457.801 47.548C454.985 48.912 451.443 49.594 447.175 49.594C442.951 49.594 438.881 48.362 434.965 45.898Z" fill="#B23E89"/>
</svg>
